<?xml version="1.0" standalone="no"?>
<!DOCTYPE svg PUBLIC "-//W3C//DTD SVG 20010904//EN"
 "http://www.w3.org/TR/2001/REC-SVG-20010904/DTD/svg10.dtd">
<svg version="1.0" xmlns="http://www.w3.org/2000/svg"
 width="537.000000pt" height="537.000000pt" viewBox="0 0 537.000000 537.000000"
 preserveAspectRatio="xMidYMid meet">

<g transform="translate(0.000000,537.000000) scale(0.100000,-0.100000)"
fill="#000000" stroke="none">
<path d="M4417 4580 c-6 -16 -15 -30 -20 -30 -4 0 -6 4 -2 9 8 14 -9 21 -25
11 -12 -8 -13 -13 -3 -29 10 -16 9 -18 -7 -14 -11 3 -18 8 -16 12 9 14 -11 32
-27 25 -13 -5 -14 -10 -6 -27 10 -17 9 -19 -6 -14 -9 4 -18 7 -21 7 -2 0 -1 7
2 15 4 9 0 15 -10 15 -26 0 -19 -40 12 -66 15 -13 21 -24 14 -24 -16 0 -63 46
-55 54 4 3 1 6 -6 6 -7 0 -9 5 -6 10 8 13 -8 13 -20 1 -6 -5 -21 -11 -34 -13
-23 -3 -41 -38 -20 -38 6 0 7 -4 4 -10 -3 -5 -1 -10 6 -10 7 0 10 -2 7 -5 -8
-9 -38 6 -32 16 3 5 0 9 -6 9 -6 0 -8 5 -5 10 3 6 2 10 -3 10 -6 0 -12 -6 -15
-14 -3 -8 -16 -16 -29 -18 -13 -2 -23 -8 -23 -15 0 -6 -4 -15 -9 -20 -5 -5 -6
-3 -2 5 4 6 3 12 -3 12 -6 0 -15 -9 -21 -20 -6 -11 -17 -20 -24 -20 -13 0 -56
-41 -56 -53 0 -4 -9 -16 -20 -27 -11 -11 -17 -27 -14 -37 4 -13 3 -15 -4 -5
-17 25 -82 -128 -108 -258 -2 -8 -9 -68 -16 -133 l-12 -119 -30 6 c-70 14
-136 18 -136 9 0 -6 -10 -10 -22 -10 -46 -1 -49 -2 -43 -30 4 -22 2 -20 -8 7
-11 28 -21 36 -51 42 -61 13 -2448 1 -2536 -12 -41 -6 -91 -13 -110 -14 -47
-4 -135 -31 -162 -50 -12 -9 -29 -16 -38 -16 -8 0 -28 -13 -43 -30 -16 -16
-35 -30 -43 -30 -8 0 -17 -8 -21 -17 -3 -10 -17 -33 -30 -51 -13 -17 -21 -37
-17 -43 3 -6 -5 -34 -20 -62 -36 -73 -59 -170 -60 -257 -1 -41 5 -208 11 -370
17 -404 20 -1166 4 -1248 -15 -79 0 -294 29 -405 66 -258 223 -380 550 -427
52 -8 419 -9 1195 -5 1482 7 1632 11 1665 41 8 8 49 36 90 64 123 81 170 128
175 175 3 22 9 51 15 65 51 131 69 337 70 773 0 152 3 227 11 227 13 0 4 986
-11 1080 -17 113 -16 116 33 124 88 14 196 52 321 113 106 51 118 58 150 88
15 14 30 25 34 25 4 0 18 14 32 31 14 17 32 39 41 48 85 86 151 315 130 451
-6 38 -5 53 5 61 43 36 -17 151 -146 279 -103 103 -173 148 -276 174 -89 23
-104 21 -117 -14z m-202 -80 c4 -11 11 -18 16 -15 5 4 9 1 9 -4 0 -6 -4 -11
-10 -11 -14 0 -50 37 -42 44 11 11 21 6 27 -14z m200 -11 c-3 -4 -12 -6 -20
-3 -8 4 -13 10 -10 15 3 4 12 6 20 3 8 -4 13 -10 10 -15z m-304 -28 c-11 -7
-9 -10 8 -16 13 -4 20 -9 18 -12 -8 -7 -47 16 -47 27 0 6 8 10 18 10 13 0 14
-2 3 -9z m99 -21 c0 -5 -7 -10 -15 -10 -8 0 -15 5 -15 10 0 6 7 10 15 10 8 0
15 -4 15 -10z m-125 -19 c3 -5 0 -13 -6 -17 -7 -4 -9 -3 -5 4 3 5 0 13 -6 15
-9 4 -10 6 -1 6 6 1 14 -3 18 -8z m374 -25 c15 -13 51 -31 81 -40 98 -27 189
-102 205 -169 4 -15 18 -36 31 -46 18 -14 25 -31 28 -68 10 -128 -42 -276
-133 -375 -51 -56 -152 -128 -201 -143 -14 -4 -29 -11 -35 -15 -5 -4 -35 -13
-65 -20 -30 -7 -59 -15 -65 -19 -5 -3 -28 -7 -49 -8 -22 -2 -42 -6 -45 -10 -3
-5 -20 -9 -36 -10 -27 -2 -33 3 -60 55 -33 64 -96 136 -155 177 l-39 27 1 95
c1 176 54 324 154 433 81 87 213 148 343 159 8 0 26 -10 40 -23z m-433 5 c-3
-5 1 -11 9 -15 17 -6 20 -26 4 -26 -5 0 -8 4 -5 9 3 5 -1 11 -9 15 -17 6 -20
26 -4 26 5 0 8 -4 5 -9z m94 -11 c0 -5 -7 -10 -16 -10 -8 0 -12 5 -9 10 3 6
10 10 16 10 5 0 9 -4 9 -10z m-85 -70 c-3 -5 -11 -10 -16 -10 -6 0 -7 5 -4 10
3 6 11 10 16 10 6 0 7 -4 4 -10z m-65 -74 c0 -3 -4 -8 -10 -11 -5 -3 -10 -1
-10 4 0 6 5 11 10 11 6 0 10 -2 10 -4z m-252 -463 c-10 -2 -28 -2 -40 0 -13 2
-5 4 17 4 22 1 32 -1 23 -4z m1087 -83 c3 -5 -1 -10 -10 -10 -9 0 -13 5 -10
10 3 6 8 10 10 10 2 0 7 -4 10 -10z m-58 -76 c-3 -3 -12 -4 -19 -1 -8 3 -5 6
6 6 11 1 17 -2 13 -5z m-137 -64 c0 -5 -2 -10 -4 -10 -3 0 -8 5 -11 10 -3 6
-1 10 4 10 6 0 11 -4 11 -10z m67 4 c-3 -3 -12 -4 -19 -1 -8 3 -5 6 6 6 11 1
17 -2 13 -5z m-142 -44 c-3 -5 -11 -10 -16 -10 -6 0 -7 5 -4 10 3 6 11 10 16
10 6 0 7 -4 4 -10z m65 -10 c0 -5 -7 -7 -15 -4 -8 4 -15 8 -15 10 0 2 7 4 15
4 8 0 15 -4 15 -10z m-150 -24 c0 -11 -19 -15 -25 -6 -3 5 1 10 9 10 9 0 16
-2 16 -4z m-145 -16 c3 -5 1 -10 -4 -10 -6 0 -11 5 -11 10 0 6 2 10 4 10 3 0
8 -4 11 -10z m205 0 c0 -5 -7 -7 -15 -4 -8 4 -15 8 -15 10 0 2 7 4 15 4 8 0
15 -4 15 -10z m-155 -10 c3 -5 -1 -10 -10 -10 -9 0 -13 5 -10 10 3 6 8 10 10
10 2 0 7 -4 10 -10z m-135 -14 c0 -3 -4 -8 -10 -11 -5 -3 -10 -1 -10 4 0 6 5
11 10 11 6 0 10 -2 10 -4z m45 -6 c3 -5 -1 -10 -10 -10 -9 0 -13 5 -10 10 3 6
8 10 10 10 2 0 7 -4 10 -10z m150 0 c3 -6 -1 -7 -9 -4 -18 7 -21 14 -7 14 6 0
13 -4 16 -10z m-235 -24 c0 -3 -4 -8 -10 -11 -5 -3 -10 -1 -10 4 0 6 5 11 10
11 6 0 10 -2 10 -4z m150 -6 c0 -5 -7 -7 -15 -4 -8 4 -15 8 -15 10 0 2 7 4 15
4 8 0 15 -4 15 -10z m-90 -16 c0 -2 -7 -4 -15 -4 -8 0 -15 4 -15 10 0 5 7 7
15 4 8 -4 15 -8 15 -10z m-2390 -613 c0 -3 -55 -4 -122 -1 l-123 5 100 5 c102
5 145 3 145 -9z m708 -17 c39 -19 62 -39 83 -72 16 -25 29 -51 29 -56 -1 -6
-8 3 -17 19 -22 42 -42 64 -88 94 l-40 26 -265 4 c-146 2 -249 7 -230 10 19 3
134 5 254 4 215 -2 220 -3 274 -29z m-1075 19 c3 -5 -89 -8 -203 -8 -114 0
-206 3 -203 8 2 4 94 7 203 7 109 0 201 -3 203 -7z m1577 0 c0 -5 -54 -8 -119
-8 -66 0 -117 3 -114 8 2 4 56 7 119 7 63 0 114 -3 114 -7z m-1213 -75 c-2
-13 -4 -5 -4 17 -1 22 1 32 4 23 2 -10 2 -28 0 -40z m830 -120 c-3 -7 -5 -2
-5 12 0 14 2 19 5 13 2 -7 2 -19 0 -25z m-1364 -315 c-7 -2 -21 -2 -30 0 -10
3 -4 5 12 5 17 0 24 -2 18 -5z m73 -37 c19 -19 34 -40 34 -47 -1 -8 -8 -1 -16
14 -8 15 -30 37 -47 47 -18 11 -26 20 -18 20 7 0 28 -15 47 -34z m1271 -136
c26 -37 10 -29 -27 14 -25 28 -28 35 -12 24 13 -9 31 -26 39 -38z m846 -217
c3 -5 -32 -7 -76 -5 -141 4 -156 9 -40 10 61 1 114 -1 116 -5z m-2093 -10 c0
-5 -37 -7 -82 -5 -143 4 -157 9 -35 10 64 1 117 -1 117 -5z m2097 -105 c-3 -7
-5 -2 -5 12 0 14 2 19 5 13 2 -7 2 -19 0 -25z m0 -140 c-3 -8 -6 -5 -6 6 -1
11 2 17 5 13 3 -3 4 -12 1 -19z m-1974 -85 c-7 -2 -19 -2 -25 0 -7 3 -2 5 12
5 14 0 19 -2 13 -5z"/>
</g>
</svg>
